<?xml version="1.0" encoding="UTF-8" standalone="no"?>
<!-- Created with Inkscape (http://www.inkscape.org/) -->

<svg
   xmlns:dc="http://purl.org/dc/elements/1.1/"
   xmlns:cc="http://creativecommons.org/ns#"
   xmlns:rdf="http://www.w3.org/1999/02/22-rdf-syntax-ns#"
   xmlns:svg="http://www.w3.org/2000/svg"
   xmlns="http://www.w3.org/2000/svg"
   xmlns:sodipodi="http://sodipodi.sourceforge.net/DTD/sodipodi-0.dtd"
   xmlns:inkscape="http://www.inkscape.org/namespaces/inkscape"
   width="55.285458"
   height="55.290947"
   id="svg2"
   version="1.1"
   inkscape:version="0.48.4 r9939"
   sodipodi:docname="dummy.svg">
  <defs
     id="defs4" />
  <sodipodi:namedview
     id="base"
     pagecolor="#ffffff"
     bordercolor="#666666"
     borderopacity="1.0"
     inkscape:pageopacity="0.0"
     inkscape:pageshadow="2"
     inkscape:zoom="11.2"
     inkscape:cx="51.044849"
     inkscape:cy="20.252659"
     inkscape:document-units="px"
     inkscape:current-layer="layer1"
     showgrid="false"
     inkscape:window-width="1920"
     inkscape:window-height="1030"
     inkscape:window-x="0"
     inkscape:window-y="0"
     inkscape:window-maximized="1"
     fit-margin-top="0"
     fit-margin-left="0"
     fit-margin-right="0"
     fit-margin-bottom="0" />
  <metadata
     id="metadata7">
    <rdf:RDF>
      <cc:Work
         rdf:about="">
        <dc:format>image/svg+xml</dc:format>
        <dc:type
           rdf:resource="http://purl.org/dc/dcmitype/StillImage" />
        <dc:title></dc:title>
      </cc:Work>
    </rdf:RDF>
  </metadata>
  <g
     inkscape:label="Layer 1"
     inkscape:groupmode="layer"
     id="layer1"
     transform="translate(-91.19773,-323.55668)">
    <path
       sodipodi:type="arc"
       style="fill:#c6ccb6;fill-opacity:1;fill-rule:nonzero;stroke:#000000;stroke-width:0.51099998;stroke-linecap:round;stroke-linejoin:round;stroke-miterlimit:4;stroke-opacity:0.52153111;stroke-dasharray:none;stroke-dashoffset:14.99999732"
       id="path2985"
       sodipodi:cx="248.57143"
       sodipodi:cy="480.93362"
       sodipodi:rx="157.14285"
       sodipodi:ry="157.14285"
       d="m 405.71428,480.93362 c 0,86.78761 -70.35525,157.14286 -157.14285,157.14286 -86.7876,0 -157.142856,-70.35525 -157.142856,-157.14286 0,-86.7876 70.355256,-157.14285 157.142856,-157.14285 86.7876,0 157.14285,70.35525 157.14285,157.14285 z"
       transform="matrix(0.17563136,0,0,0.17563136,75.182345,266.73445)" />
    <g
       style="font-size:3.90158558px;font-style:normal;font-weight:normal;line-height:59.00000334%;letter-spacing:0px;word-spacing:0px;fill:#000000;fill-opacity:1;stroke:none;font-family:Sans"
       id="text3025"
       transform="matrix(1.7698883,0,0,1.7698883,-70.1595,-249.05244)">
      <path
         d="m 93.256406,337.87828 0,2.21179 0.464838,0 c 0.392443,0 0.679473,-0.0889 0.861092,-0.26671 0.182884,-0.17781 0.274328,-0.45849 0.27433,-0.84204 -2e-6,-0.38101 -0.09145,-0.65979 -0.27433,-0.83633 -0.181619,-0.1778 -0.468649,-0.26671 -0.861092,-0.26671 l -0.464838,0 m -0.384824,-0.31624 0.790605,0 c 0.551198,0 0.955708,0.11494 1.21353,0.34482 0.257817,0.22861 0.386726,0.58676 0.386729,1.07446 -3e-6,0.49024 -0.129547,0.8503 -0.388634,1.08017 -0.259092,0.22988 -0.662967,0.34482 -1.211625,0.34482 l -0.790605,0 0,-2.84427"
         style="line-height:59.00000334%"
         id="path3030"
         inkscape:connector-curvature="0" />
      <path
         d="m 95.822537,339.56427 0,-1.29164 0.350533,0 0,1.2783 c 0,0.20194 0.03937,0.35371 0.118115,0.45532 0.07874,0.10033 0.196856,0.1505 0.354343,0.1505 0.189236,0 0.338466,-0.0603 0.447692,-0.18099 0.110492,-0.12065 0.165739,-0.28512 0.165741,-0.49341 l 0,-1.20972 0.350533,0 0,2.13368 -0.350533,0 0,-0.32767 c -0.08509,0.12954 -0.184159,0.22607 -0.297191,0.28957 -0.111766,0.0622 -0.241946,0.0934 -0.39054,0.0934 -0.24512,0 -0.431182,-0.0762 -0.558186,-0.22861 -0.127005,-0.15241 -0.190507,-0.3753 -0.190507,-0.66868 m 0.882048,-1.34308 0,0"
         style="line-height:59.00000334%"
         id="path3032"
         inkscape:connector-curvature="0" />
      <path
         d="m 99.996548,338.68222 c 0.08763,-0.15748 0.192412,-0.27369 0.314332,-0.34863 0.12193,-0.0749 0.26544,-0.11239 0.43055,-0.1124 0.22226,1e-5 0.39371,0.0781 0.51437,0.23433 0.12065,0.15495 0.18098,0.37593 0.18098,0.66296 l 0,1.28783 -0.35244,0 0,-1.2764 c 0,-0.20447 -0.0362,-0.35624 -0.10859,-0.45531 -0.0724,-0.0991 -0.18289,-0.14859 -0.33148,-0.14859 -0.18162,0 -0.32513,0.0603 -0.43054,0.18098 -0.10542,0.12065 -0.15813,0.28512 -0.15813,0.49341 l 0,1.20591 -0.352433,0 0,-1.2764 c -2e-6,-0.20574 -0.0362,-0.35751 -0.108589,-0.45531 -0.07239,-0.0991 -0.184159,-0.14859 -0.335293,-0.14859 -0.179078,0 -0.321323,0.061 -0.426736,0.18288 -0.105414,0.12066 -0.158121,0.28449 -0.158121,0.49151 l 0,1.20591 -0.352438,0 0,-2.13368 0.352438,0 0,0.33148 c 0.08001,-0.13081 0.175901,-0.22733 0.287666,-0.28957 0.111763,-0.0622 0.244483,-0.0933 0.39816,-0.0934 0.154944,1e-5 0.286394,0.0394 0.39435,0.11812 0.109222,0.0787 0.18987,0.19305 0.241944,0.34291"
         style="line-height:59.00000334%"
         id="path3034"
         inkscape:connector-curvature="0" />
      <path
         d="m 103.79907,338.68222 c 0.0876,-0.15748 0.19241,-0.27369 0.31434,-0.34863 0.12192,-0.0749 0.26543,-0.11239 0.43054,-0.1124 0.22226,1e-5 0.39371,0.0781 0.51437,0.23433 0.12065,0.15495 0.18098,0.37593 0.18098,0.66296 l 0,1.28783 -0.35243,0 0,-1.2764 c -1e-5,-0.20447 -0.0362,-0.35624 -0.10859,-0.45531 -0.0724,-0.0991 -0.18289,-0.14859 -0.33149,-0.14859 -0.18162,0 -0.32513,0.0603 -0.43054,0.18098 -0.10542,0.12065 -0.15812,0.28512 -0.15812,0.49341 l 0,1.20591 -0.35244,0 0,-1.2764 c 0,-0.20574 -0.0362,-0.35751 -0.10859,-0.45531 -0.0724,-0.0991 -0.18416,-0.14859 -0.33529,-0.14859 -0.17908,0 -0.32133,0.061 -0.42674,0.18288 -0.10541,0.12066 -0.15812,0.28449 -0.15812,0.49151 l 0,1.20591 -0.35244,0 0,-2.13368 0.35244,0 0,0.33148 c 0.08,-0.13081 0.1759,-0.22733 0.28767,-0.28957 0.11176,-0.0622 0.24448,-0.0933 0.39816,-0.0934 0.15494,1e-5 0.28639,0.0394 0.39435,0.11812 0.10922,0.0787 0.18987,0.19305 0.24194,0.34291"
         style="line-height:59.00000334%"
         id="path3036"
         inkscape:connector-curvature="0" />
      <path
         d="m 106.82813,340.60444 c -0.0991,0.25401 -0.19559,0.41975 -0.28957,0.49722 -0.094,0.0775 -0.21972,0.11621 -0.3772,0.11621 l -0.28005,0 0,-0.29338 0.20575,0 c 0.0965,0 0.17146,-0.0229 0.2248,-0.0686 0.0533,-0.0457 0.1124,-0.15368 0.17717,-0.32386 l 0.0629,-0.16003 -0.863,-2.09939 0.37149,0 0.66677,1.66884 0.66678,-1.66884 0.37149,0 -0.9373,2.33181"
         style="line-height:59.00000334%"
         id="path3038"
         inkscape:connector-curvature="0" />
      <path
         d="m 109.50666,337.56204 0.38483,0 0,2.84427 -0.38483,0 0,-2.84427"
         style="line-height:59.00000334%"
         id="path3040"
         inkscape:connector-curvature="0" />
      <path
         d="m 112.30331,338.68222 c 0.0876,-0.15748 0.19241,-0.27369 0.31433,-0.34863 0.12193,-0.0749 0.26544,-0.11239 0.43055,-0.1124 0.22226,1e-5 0.39371,0.0781 0.51437,0.23433 0.12065,0.15495 0.18098,0.37593 0.18098,0.66296 l 0,1.28783 -0.35244,0 0,-1.2764 c 0,-0.20447 -0.0362,-0.35624 -0.10859,-0.45531 -0.0724,-0.0991 -0.18289,-0.14859 -0.33148,-0.14859 -0.18162,0 -0.32513,0.0603 -0.43054,0.18098 -0.10542,0.12065 -0.15813,0.28512 -0.15813,0.49341 l 0,1.20591 -0.35243,0 0,-1.2764 c -1e-5,-0.20574 -0.0362,-0.35751 -0.10859,-0.45531 -0.0724,-0.0991 -0.18416,-0.14859 -0.3353,-0.14859 -0.17907,0 -0.32132,0.061 -0.42673,0.18288 -0.10542,0.12066 -0.15812,0.28449 -0.15812,0.49151 l 0,1.20591 -0.35244,0 0,-2.13368 0.35244,0 0,0.33148 c 0.08,-0.13081 0.1759,-0.22733 0.28766,-0.28957 0.11177,-0.0622 0.24449,-0.0933 0.39816,-0.0934 0.15495,1e-5 0.2864,0.0394 0.39435,0.11812 0.10923,0.0787 0.18987,0.19305 0.24195,0.34291"
         style="line-height:59.00000334%"
         id="path3042"
         inkscape:connector-curvature="0" />
      <path
         d="m 115.41429,339.33376 c -0.28322,0 -0.47944,0.0324 -0.58867,0.0971 -0.10922,0.0648 -0.16383,0.17527 -0.16383,0.33149 0,0.12446 0.0406,0.22353 0.12192,0.29719 0.0825,0.0724 0.19432,0.10859 0.33529,0.10859 0.19432,0 0.3499,-0.0686 0.46675,-0.20575 0.11811,-0.13844 0.17717,-0.32196 0.17717,-0.55057 l 0,-0.0781 -0.34863,0 m 0.69916,-0.14479 0,1.21734 -0.35053,0 0,-0.32386 c -0.08,0.12954 -0.17972,0.22543 -0.2991,0.28766 -0.11938,0.061 -0.26544,0.0915 -0.43817,0.0915 -0.21844,0 -0.39244,-0.061 -0.52198,-0.18289 -0.12828,-0.12319 -0.19242,-0.28766 -0.19242,-0.49341 0,-0.24004 0.08,-0.42102 0.24004,-0.54295 0.1613,-0.12192 0.40134,-0.18288 0.72012,-0.18288 l 0.49151,0 0,-0.0343 c 0,-0.16129 -0.0533,-0.28575 -0.16003,-0.37339 -0.10541,-0.0889 -0.25401,-0.13335 -0.44579,-0.13335 -0.12192,0 -0.24067,0.0146 -0.35624,0.0438 -0.11558,0.0292 -0.22671,0.073 -0.33339,0.13145 l 0,-0.32386 c 0.12827,-0.0495 0.25274,-0.0864 0.37339,-0.11049 0.12066,-0.0254 0.23814,-0.0381 0.35244,-0.0381 0.30862,1e-5 0.53913,0.08 0.69154,0.24004 0.15241,0.16003 0.22861,0.40261 0.22861,0.72774"
         style="line-height:59.00000334%"
         id="path3044"
         inkscape:connector-curvature="0" />
      <path
         d="m 118.24141,339.31471 c 0,-0.25401 -0.0527,-0.45087 -0.15812,-0.59058 -0.10414,-0.1397 -0.25083,-0.20955 -0.44007,-0.20955 -0.18797,0 -0.33466,0.0698 -0.44007,0.20955 -0.10414,0.13971 -0.15622,0.33657 -0.15622,0.59058 0,0.25274 0.0521,0.44896 0.15622,0.58866 0.10541,0.13971 0.2521,0.20956 0.44007,0.20956 0.18924,0 0.33593,-0.0699 0.44007,-0.20956 0.10542,-0.1397 0.15812,-0.33592 0.15812,-0.58866 m 0.35054,0.8268 c 0,0.36323 -0.0806,0.63311 -0.24195,0.80965 -0.16129,0.17781 -0.40832,0.26671 -0.74107,0.26671 -0.1232,0 -0.2394,-0.01 -0.34863,-0.0286 -0.10922,-0.0178 -0.21527,-0.0457 -0.31814,-0.0838 l 0,-0.34101 c 0.10287,0.0559 0.20447,0.0972 0.30481,0.12383 0.10033,0.0267 0.20257,0.04 0.30671,0.04 0.22988,0 0.40197,-0.0603 0.51628,-0.18098 0.1143,-0.11939 0.17145,-0.30037 0.17145,-0.54295 l 0,-0.17336 c -0.0724,0.12574 -0.1651,0.21972 -0.27814,0.28195 -0.11303,0.0622 -0.24829,0.0934 -0.40578,0.0934 -0.26163,0 -0.47245,-0.0997 -0.63248,-0.2991 -0.16003,-0.19939 -0.24004,-0.46356 -0.24004,-0.7925 0,-0.33022 0.08,-0.59502 0.24004,-0.79442 0.16003,-0.19939 0.37085,-0.29909 0.63248,-0.2991 0.15749,1e-5 0.29275,0.0311 0.40578,0.0934 0.11304,0.0622 0.20575,0.15622 0.27814,0.28195 l 0,-0.32386 0.35054,0 0,1.86888"
         style="line-height:59.00000334%"
         id="path3046"
         inkscape:connector-curvature="0" />
      <path
         d="m 121.13903,339.25184 0,0.17145 -1.61169,0 c 0.0152,0.24131 0.0876,0.42547 0.21717,0.55247 0.13082,0.12574 0.31243,0.18861 0.54485,0.18861 0.13463,0 0.26481,-0.0165 0.39054,-0.0495 0.12701,-0.033 0.25274,-0.0826 0.37721,-0.1486 l 0,0.33148 c -0.12574,0.0533 -0.25465,0.094 -0.38673,0.12193 -0.13209,0.0279 -0.26608,0.0419 -0.40197,0.0419 -0.34038,0 -0.61026,-0.0991 -0.80966,-0.29719 -0.19812,-0.19813 -0.29719,-0.46611 -0.29719,-0.80394 0,-0.34926 0.094,-0.62613 0.28195,-0.83061 0.18924,-0.20575 0.44388,-0.30862 0.76394,-0.30863 0.28703,1e-5 0.51373,0.0927 0.68011,0.27814 0.16764,0.18416 0.25146,0.435 0.25147,0.75251 m -0.35054,-0.10288 c -0.003,-0.19177 -0.0565,-0.34481 -0.16193,-0.45912 -0.10414,-0.1143 -0.24258,-0.17145 -0.4153,-0.17145 -0.19559,0 -0.35244,0.0552 -0.47056,0.16574 -0.11684,0.11049 -0.18415,0.26607 -0.20193,0.46674 l 1.24972,-0.002"
         style="line-height:59.00000334%"
         id="path3048"
         inkscape:connector-curvature="0" />
    </g>
  </g>
</svg>
